<svg width="135" height="40" viewBox="0 0 135 40" fill="none" xmlns="http://www.w3.org/2000/svg">
<g clip-path="url(#clip0)">
<path d="M130 -0.000488281H5C2.23858 -0.000488281 0 2.23809 0 4.99951V34.9995C0 37.7609 2.23858 39.9995 5 39.9995H130C132.761 39.9995 135 37.7609 135 34.9995V4.99951C135 2.23809 132.761 -0.000488281 130 -0.000488281Z" fill="black"/>
<path d="M130 0.799312C131.114 0.800598 132.181 1.24354 132.968 2.03096C133.756 2.81838 134.199 3.88597 134.2 4.99951V34.9995C134.199 36.113 133.756 37.1806 132.968 37.968C132.181 38.7555 131.114 39.1984 130 39.1997H5C3.88645 39.1984 2.81888 38.7555 2.0315 37.9681C1.24412 37.1807 0.801231 36.1131 0.8 34.9995V4.99951C0.801212 3.88596 1.24409 2.81835 2.03148 2.03093C2.81886 1.24351 3.88644 0.800577 5 0.799312H130ZM130 -0.000488281H5C3.67511 0.00338982 2.40559 0.531419 1.46875 1.46826C0.531908 2.4051 0.0038781 3.67462 0 4.99951L0 34.9995C0.0038781 36.3244 0.531908 37.5939 1.46875 38.5308C2.40559 39.4676 3.67511 39.9956 5 39.9995H130C131.325 39.9956 132.594 39.4676 133.531 38.5308C134.468 37.5939 134.996 36.3244 135 34.9995V4.99951C134.996 3.67462 134.468 2.4051 133.531 1.46826C132.594 0.531419 131.325 0.00338982 130 -0.000488281Z" fill="#A6A6A6"/>
<path d="M47.4184 10.2429C47.4366 10.6098 47.3799 10.9766 47.2518 11.3209C47.1237 11.6653 46.9268 11.9799 46.6732 12.2458C46.389 12.5405 46.0457 12.772 45.6659 12.9249C45.2861 13.0779 44.8783 13.149 44.4691 13.1335C44.0573 13.1371 43.649 13.0585 43.268 12.9021C42.8871 12.7457 42.5412 12.5147 42.2508 12.2228C41.9604 11.9308 41.7313 11.5837 41.5769 11.202C41.4226 10.8202 41.3461 10.4114 41.352 9.99965C41.3462 9.58788 41.4227 9.1791 41.577 8.79732C41.7314 8.41554 41.9605 8.06846 42.2509 7.77647C42.5413 7.48447 42.8871 7.25346 43.268 7.097C43.649 6.94053 44.0573 6.86178 44.4691 6.86535C44.8925 6.86407 45.3116 6.94967 45.7006 7.11685C46.0619 7.26329 46.3834 7.493 46.6391 7.78725L46.1117 8.31505C45.9107 8.0785 45.6581 7.89129 45.3733 7.76786C45.0885 7.64442 44.7791 7.58807 44.4691 7.60315C44.157 7.60154 43.8478 7.66292 43.56 7.78363C43.2722 7.90435 43.0118 8.0819 42.7942 8.30566C42.5767 8.52942 42.4065 8.79478 42.2939 9.08586C42.1814 9.37694 42.1287 9.68774 42.1391 9.99965C42.1317 10.4668 42.2631 10.9257 42.5168 11.3181C42.7705 11.7105 43.135 12.0187 43.5641 12.2037C43.9932 12.3886 44.4676 12.442 44.927 12.357C45.3865 12.272 45.8104 12.0525 46.1449 11.7263C46.4528 11.3945 46.6313 10.9632 46.6478 10.5109H44.4691V9.79015H47.3764C47.4039 9.93949 47.4179 10.091 47.4184 10.2429Z" fill="white" stroke="white" stroke-width="0.2" stroke-miterlimit="10"/>
<path d="M52.0277 7.73681H49.2953V9.63911H51.7592V10.3599H49.2953V12.2622H52.0277V12.9995H48.5248V6.99951H52.0277V7.73681Z" fill="white" stroke="white" stroke-width="0.2" stroke-miterlimit="10"/>
<path d="M55.2787 12.9995H54.5072V7.73681H52.8314V6.99951H56.9545V7.73681H55.2787V12.9995Z" fill="white" stroke="white" stroke-width="0.2" stroke-miterlimit="10"/>
<path d="M59.9379 12.9995V6.99951H60.7084V12.9995H59.9379Z" fill="white" stroke="white" stroke-width="0.2" stroke-miterlimit="10"/>
<path d="M64.1284 12.9995H63.3569V7.73681H61.6812V6.99951H65.8042V7.73681H64.1284V12.9995Z" fill="white" stroke="white" stroke-width="0.2" stroke-miterlimit="10"/>
<path d="M73.6093 12.2241C73.0253 12.8064 72.2343 13.1333 71.4096 13.1333C70.5849 13.1333 69.7939 12.8064 69.2099 12.2241C68.921 11.9315 68.6939 11.5838 68.542 11.2016C68.3902 10.8194 68.3168 10.4106 68.3261 9.99953C68.3168 9.58842 68.3902 9.17963 68.542 8.79746C68.6939 8.4153 68.921 8.06756 69.2099 7.77493C69.4986 7.4862 69.8413 7.25723 70.2186 7.10113C70.5958 6.94504 71.0002 6.86487 71.4085 6.86524C71.8167 6.8656 72.2209 6.94648 72.5979 7.10325C72.9749 7.26001 73.3173 7.48959 73.6054 7.77883C73.8945 8.07069 74.1221 8.41765 74.2746 8.79912C74.4271 9.18059 74.5014 9.5888 74.4931 9.99953C74.5022 10.4106 74.4286 10.8193 74.2768 11.2015C74.125 11.5836 73.898 11.9314 73.6093 12.2241ZM69.7792 11.7217C70.2117 12.1535 70.7979 12.396 71.4091 12.396C72.0203 12.396 72.6065 12.1535 73.039 11.7217C73.2608 11.4947 73.4343 11.225 73.5489 10.929C73.6635 10.633 73.717 10.3168 73.706 9.99953C73.717 9.68229 73.6635 9.36612 73.5489 9.07011C73.4343 8.77411 73.2608 8.50442 73.039 8.27733C72.6065 7.84554 72.0203 7.60302 71.4091 7.60302C70.7979 7.60302 70.2117 7.84554 69.7792 8.27733C69.5577 8.5046 69.3845 8.77434 69.2701 9.07032C69.1556 9.3663 69.1022 9.68238 69.1132 9.99953C69.1022 10.3167 69.1556 10.6328 69.2701 10.9287C69.3845 11.2247 69.5577 11.4945 69.7792 11.7217Z" fill="white" stroke="white" stroke-width="0.2" stroke-miterlimit="10"/>
<path d="M75.5751 12.9995V6.99951H76.5136L79.4296 11.667H79.4628L79.4296 10.5107V6.99951H80.2011V12.9995H79.3964L76.3456 8.10591H76.3124L76.3456 9.26221V12.9995H75.5751Z" fill="white" stroke="white" stroke-width="0.2" stroke-miterlimit="10"/>
<path d="M68.1357 21.751C67.2952 21.7542 66.4745 22.0063 65.7772 22.4756C65.0799 22.9449 64.5373 23.6102 64.2178 24.3877C63.8984 25.1651 63.8165 26.0198 63.9824 26.8438C64.1483 27.6677 64.5547 28.4241 65.1501 29.0173C65.7456 29.6105 66.5035 30.014 67.3281 30.1768C68.1527 30.3396 69.007 30.2544 69.7832 29.932C70.5595 29.6096 71.2228 29.0644 71.6894 28.3654C72.156 27.6663 72.4051 26.8446 72.405 26.0041C72.4133 25.4419 72.3084 24.8838 72.0966 24.363C71.8847 23.8422 71.5703 23.3693 71.172 22.9725C70.7737 22.5757 70.2996 22.2631 69.778 22.0532C69.2564 21.8434 68.6979 21.7406 68.1357 21.751ZM68.1357 28.5818C67.6181 28.6187 67.1014 28.4989 66.6528 28.238C66.2042 27.9771 65.8445 27.5872 65.6207 27.1191C65.3968 26.6509 65.319 26.1262 65.3975 25.6132C65.476 25.1002 65.7071 24.6228 66.0608 24.243C66.4144 23.8633 66.8742 23.5988 67.3803 23.484C67.8864 23.3692 68.4153 23.4094 68.8982 23.5994C69.3811 23.7894 69.7956 24.1204 70.0877 24.5493C70.3799 24.9782 70.5361 25.4851 70.5361 26.0041C70.5519 26.3319 70.5018 26.6596 70.389 26.9678C70.2761 27.276 70.1028 27.5585 69.8791 27.7987C69.6554 28.0389 69.386 28.2319 69.0866 28.3664C68.7872 28.5009 68.4639 28.5741 68.1357 28.5818ZM58.8223 21.751C57.9818 21.7541 57.1611 22.0063 56.4638 22.4755C55.7665 22.9448 55.2238 23.6102 54.9044 24.3876C54.5849 25.1651 54.503 26.0197 54.6689 26.8437C54.8348 27.6677 55.2411 28.424 55.8366 29.0173C56.4321 29.6105 57.1899 30.0139 58.0145 30.1768C58.8391 30.3396 59.6935 30.2544 60.4697 29.932C61.246 29.6096 61.9093 29.0645 62.3759 28.3654C62.8425 27.6663 63.0916 26.8446 63.0915 26.0041C63.0998 25.4419 62.9949 24.8838 62.7831 24.363C62.5713 23.8422 62.2568 23.3693 61.8585 22.9725C61.4602 22.5757 60.9862 22.2631 60.4646 22.0532C59.943 21.8434 59.3845 21.7406 58.8223 21.751ZM58.8223 28.5818C58.3047 28.6187 57.788 28.4989 57.3394 28.238C56.8908 27.9771 56.5311 27.5872 56.3073 27.1191C56.0834 26.6509 56.0056 26.1262 56.0841 25.6132C56.1626 25.1002 56.3937 24.6228 56.7474 24.243C57.101 23.8633 57.5608 23.5988 58.0669 23.484C58.573 23.3692 59.1019 23.4094 59.5848 23.5994C60.0677 23.7894 60.4822 24.1204 60.7743 24.5493C61.0665 24.9782 61.2227 25.4851 61.2227 26.0041C61.2385 26.3319 61.1884 26.6596 61.0756 26.9678C60.9628 27.276 60.7894 27.5585 60.5657 27.7987C60.342 28.0389 60.0726 28.232 59.7732 28.3664C59.4738 28.5009 59.1505 28.5741 58.8223 28.5818ZM47.7435 23.056V24.8603H52.0612C51.9989 25.7066 51.6526 26.507 51.0784 27.1319C50.6458 27.5729 50.1254 27.9183 49.551 28.1459C48.9766 28.3734 48.3609 28.478 47.7435 28.4529C46.4815 28.4358 45.277 27.9225 44.3906 27.024C43.5042 26.1255 43.0072 24.9141 43.0072 23.652C43.0072 22.3898 43.5042 21.1785 44.3906 20.28C45.277 19.3815 46.4815 18.8682 47.7435 18.8511C48.9558 18.8352 50.1253 19.2984 50.9979 20.1399L52.2706 18.8672C51.6752 18.2777 50.9681 17.813 50.1907 17.5004C49.4133 17.1878 48.5813 17.0335 47.7435 17.0467C46.868 17.0339 45.9987 17.1954 45.1862 17.5216C44.3736 17.8478 43.634 18.3323 43.0104 18.9469C42.3867 19.5616 41.8915 20.294 41.5535 21.1018C41.2155 21.9095 41.0414 22.7764 41.0414 23.652C41.0414 24.5276 41.2155 25.3944 41.5535 26.2022C41.8915 27.0099 42.3867 27.7424 43.0104 28.357C43.634 28.9716 44.3736 29.4561 45.1862 29.7824C45.9987 30.1086 46.868 30.27 47.7435 30.2573C48.599 30.2927 49.4522 30.1459 50.2466 29.8265C51.041 29.5071 51.7584 29.0224 52.3511 28.4046C53.4036 27.2558 53.9645 25.7408 53.9139 24.1837C53.9181 23.8055 53.8857 23.4279 53.8171 23.056H47.7435ZM93.0518 24.4575C92.7962 23.6871 92.3097 23.0141 91.6583 22.5299C91.0069 22.0457 90.2222 21.7737 89.4108 21.751C88.8644 21.7544 88.3243 21.8685 87.8232 22.0866C87.3221 22.3046 86.8704 22.622 86.4955 23.0195C86.1205 23.4171 85.8301 23.8865 85.6417 24.3995C85.4533 24.9125 85.3709 25.4583 85.3994 26.0041C85.3871 26.5633 85.4876 27.1192 85.695 27.6386C85.9024 28.1581 86.2123 28.6304 86.6063 29.0274C87.0002 29.4244 87.4702 29.738 87.9881 29.9493C88.5059 30.1606 89.0611 30.2653 89.6203 30.2573C90.321 30.2612 91.0116 30.091 91.6302 29.762C92.2489 29.433 92.7761 28.9555 93.1645 28.3724L91.7146 27.4058C91.4974 27.7665 91.1902 28.0646 90.823 28.2707C90.4559 28.4769 90.0414 28.5841 89.6203 28.5818C89.187 28.5983 88.7588 28.4843 88.391 28.2545C88.0233 28.0247 87.7331 27.6897 87.5581 27.293L93.2452 24.9409L93.0518 24.4575ZM87.2521 25.8753C87.2321 25.5657 87.274 25.2553 87.3754 24.9621C87.4768 24.6689 87.6357 24.399 87.8427 24.1679C88.0497 23.9369 88.3007 23.7495 88.581 23.6166C88.8614 23.4838 89.1654 23.4082 89.4753 23.3943C89.7979 23.373 90.1197 23.4473 90.4005 23.6077C90.6813 23.7681 90.9086 24.0077 91.0541 24.2965L87.2521 25.8753ZM82.6283 29.9995H84.4971V17.4979H82.6283V29.9995ZM79.5673 22.7015H79.5029C79.2188 22.3928 78.8721 22.1483 78.4859 21.9844C78.0997 21.8205 77.683 21.7409 77.2635 21.751C76.1669 21.7976 75.1306 22.2661 74.3711 23.0587C73.6116 23.8512 73.1876 24.9064 73.1876 26.0041C73.1876 27.1018 73.6116 28.1571 74.3711 28.9496C75.1306 29.7421 76.1669 30.2106 77.2635 30.2573C77.6846 30.2685 78.1031 30.1878 78.4898 30.0209C78.8766 29.854 79.2223 29.6048 79.5029 29.2907H79.5673V29.9029C79.5673 31.5301 78.6974 32.4 77.2957 32.4C76.8286 32.3888 76.3754 32.2388 75.9938 31.9691C75.6122 31.6994 75.3196 31.3222 75.1531 30.8856L73.5259 31.5623C73.8326 32.3089 74.3553 32.947 75.0269 33.3948C75.6985 33.8425 76.4886 34.0796 77.2957 34.0755C79.4868 34.0755 81.3395 32.7867 81.3395 29.6451V22.0087H79.5673V22.7015ZM77.4247 28.5818C76.7788 28.527 76.177 28.2317 75.7384 27.7544C75.2998 27.277 75.0564 26.6524 75.0564 26.0041C75.0564 25.3559 75.2998 24.7312 75.7384 24.2539C76.177 23.7765 76.7788 23.4812 77.4247 23.4265C77.7461 23.4422 78.061 23.5224 78.3507 23.6624C78.6404 23.8024 78.8989 23.9993 79.1109 24.2413C79.3229 24.4833 79.4839 24.7656 79.5845 25.0712C79.6851 25.3768 79.7231 25.6996 79.6962 26.0202C79.7214 26.3388 79.682 26.6592 79.5804 26.9623C79.4788 27.2653 79.3172 27.5448 79.1051 27.7839C78.8931 28.0231 78.635 28.217 78.3462 28.3541C78.0575 28.4912 77.7441 28.5686 77.4247 28.5818ZM101.806 17.4981H97.3345V29.9995H99.2002V25.2631H101.806C102.334 25.292 102.862 25.213 103.358 25.031C103.854 24.849 104.308 24.5677 104.692 24.2043C105.076 23.8409 105.381 23.4031 105.59 22.9176C105.799 22.4321 105.907 21.9091 105.907 21.3806C105.907 20.852 105.799 20.329 105.59 19.8435C105.381 19.358 105.076 18.9202 104.692 18.5569C104.308 18.1935 103.854 17.9122 103.358 17.7302C102.862 17.5481 102.334 17.4691 101.806 17.4981ZM101.854 23.5233H99.2002V19.238H101.854C102.139 19.2321 102.422 19.2831 102.688 19.3881C102.953 19.4932 103.194 19.65 103.398 19.8496C103.602 20.0491 103.764 20.2873 103.874 20.5502C103.985 20.8131 104.041 21.0954 104.041 21.3806C104.041 21.6658 103.985 21.9481 103.874 22.211C103.764 22.4739 103.602 22.7121 103.398 22.9116C103.194 23.1112 102.953 23.2681 102.688 23.3731C102.422 23.4781 102.139 23.5292 101.854 23.5233ZM113.386 21.728C112.705 21.6882 112.027 21.8481 111.435 22.1881C110.844 22.5281 110.365 23.0334 110.056 23.6419L111.713 24.3335C111.877 24.0314 112.126 23.7839 112.429 23.621C112.732 23.4582 113.075 23.3872 113.418 23.4167C113.891 23.3705 114.363 23.5138 114.731 23.8153C115.099 24.1168 115.332 24.5518 115.38 25.025V25.1537C114.781 24.8353 114.112 24.6696 113.434 24.6712C111.649 24.6712 109.831 25.6523 109.831 27.4858C109.849 27.8722 109.943 28.2512 110.11 28.6002C110.277 28.9493 110.512 29.2614 110.801 29.5179C111.091 29.7744 111.429 29.9701 111.795 30.0935C112.162 30.2168 112.55 30.2653 112.935 30.236C113.405 30.2636 113.874 30.1648 114.292 29.9499C114.711 29.7349 115.064 29.4116 115.316 29.0137H115.38V29.9787H117.181V25.1859C117.181 22.9664 115.525 21.728 113.386 21.728ZM113.16 28.5794C112.549 28.5794 111.697 28.2739 111.697 27.5179C111.697 26.553 112.758 26.183 113.675 26.183C114.271 26.1671 114.859 26.3116 115.38 26.6012C115.311 27.1434 115.049 27.6425 114.641 28.0062C114.233 28.3698 113.707 28.5734 113.16 28.5794ZM123.743 22.0014L121.604 27.4214H121.54L119.32 22.0014H117.31L120.639 29.5766L118.741 33.7904H120.687L125.818 22.0014H123.743ZM106.936 29.9995H108.802V17.4981H106.936V29.9995Z" fill="white"/>
<path d="M10.4353 7.53744C10.1074 7.92952 9.94182 8.43214 9.97251 8.94234V31.0584C9.94173 31.5687 10.1073 32.0713 10.4353 32.4633L10.5093 32.5354L22.8983 20.1465V19.8542L10.5093 7.46484L10.4353 7.53744Z" fill="url(#paint0_linear)"/>
<path d="M27.0277 24.2782L22.8983 20.1468V19.8545L27.0287 15.7241L27.1218 15.7772L32.0146 18.5573C33.4122 19.3513 33.4122 20.6505 32.0146 21.445L27.1218 24.2251L27.0277 24.2782Z" fill="url(#paint1_linear)"/>
<path d="M27.1218 24.2244L22.8983 20.0005L10.4353 32.4634C10.7201 32.7145 11.0837 32.8582 11.4633 32.8694C11.8428 32.8806 12.2143 32.7587 12.5134 32.5248L27.1218 24.2244Z" fill="url(#paint2_linear)"/>
<path d="M27.1218 15.7766L12.5134 7.47617C12.2143 7.24226 11.8428 7.12036 11.4633 7.13157C11.0837 7.14278 10.7201 7.28641 10.4353 7.53757L22.8983 20.0006L27.1218 15.7766Z" fill="url(#paint3_linear)"/>
<path opacity="0.2" d="M27.0287 24.1313L12.5134 32.3786C12.2258 32.5976 11.8748 32.717 11.5134 32.719C11.152 32.7209 10.7997 32.6052 10.5098 32.3893L10.4353 32.4638L10.5093 32.5359L10.5098 32.5354C10.7997 32.7514 11.1519 32.8672 11.5134 32.8652C11.8749 32.8633 12.2259 32.7438 12.5134 32.5247L27.1218 24.2243L27.0287 24.1313Z" fill="black"/>
<path opacity="0.12" d="M10.4353 32.318C10.1074 31.9259 9.94183 31.4233 9.97248 30.9131V31.0592C9.94181 31.5694 10.1074 32.072 10.4353 32.4641L10.5098 32.3896L10.4353 32.318Z" fill="black"/>
<path opacity="0.12" d="M32.0146 21.2983L27.0287 24.1315L27.1218 24.2245L32.0146 21.4444C32.3024 21.3195 32.5515 21.1197 32.7358 20.8658C32.9202 20.612 33.0331 20.3133 33.0629 20.001C33.001 20.2838 32.8741 20.5484 32.6921 20.7735C32.5101 20.9987 32.2781 21.1784 32.0146 21.2983Z" fill="black"/>
<path opacity="0.25" d="M12.5134 7.62286L32.0146 18.7029C32.2783 18.8227 32.5103 19.0024 32.6923 19.2277C32.8743 19.453 33.0012 19.7177 33.0629 20.0007C33.0334 19.6882 32.9205 19.3894 32.7362 19.1354C32.5518 18.8814 32.3026 18.6816 32.0146 18.5568L12.5134 7.47675C11.1158 6.68265 9.97253 7.34225 9.97253 8.94305V9.08915C9.97253 7.48845 11.1158 6.82885 12.5134 7.62286Z" fill="white"/>
</g>
<defs>
<linearGradient id="paint0_linear" x1="21.7996" y1="8.70915" x2="5.01724" y2="25.4916" gradientUnits="userSpaceOnUse">
<stop stop-color="#00A0FF"/>
<stop offset="0.00657" stop-color="#00A1FF"/>
<stop offset="0.2601" stop-color="#00BEFF"/>
<stop offset="0.5122" stop-color="#00D2FF"/>
<stop offset="0.7604" stop-color="#00DFFF"/>
<stop offset="1" stop-color="#00E3FF"/>
</linearGradient>
<linearGradient id="paint1_linear" x1="33.8343" y1="20.0012" x2="9.6374" y2="20.0012" gradientUnits="userSpaceOnUse">
<stop stop-color="#FFE000"/>
<stop offset="0.4087" stop-color="#FFBD00"/>
<stop offset="0.7754" stop-color="#FFA500"/>
<stop offset="1" stop-color="#FF9C00"/>
</linearGradient>
<linearGradient id="paint2_linear" x1="24.8269" y1="22.2956" x2="2.06857" y2="45.0539" gradientUnits="userSpaceOnUse">
<stop stop-color="#FF3A44"/>
<stop offset="1" stop-color="#C31162"/>
</linearGradient>
<linearGradient id="paint3_linear" x1="7.29723" y1="0.175749" x2="17.4598" y2="10.3383" gradientUnits="userSpaceOnUse">
<stop stop-color="#32A071"/>
<stop offset="0.0685" stop-color="#2DA771"/>
<stop offset="0.4762" stop-color="#15CF74"/>
<stop offset="0.8009" stop-color="#06E775"/>
<stop offset="1" stop-color="#00F076"/>
</linearGradient>
<clipPath id="clip0">
<rect width="135" height="40.0002" fill="white" transform="translate(0 -0.000488281)"/>
</clipPath>
</defs>
</svg>
