<svg width="25" height="24" viewBox="0 0 25 24" fill="none" xmlns="http://www.w3.org/2000/svg">
<path d="M12.7108 2.16136C15.9177 2.16136 16.2975 2.17542 17.5587 2.23169C18.7308 2.28326 19.3637 2.48017 19.7857 2.64427C20.3436 2.85993 20.7468 3.12248 21.1641 3.53975C21.586 3.96171 21.8439 4.36023 22.0595 4.91815C22.2236 5.34011 22.4206 5.97773 22.4721 7.14515C22.5284 8.41102 22.5424 8.79078 22.5424 11.993C22.5424 15.1998 22.5284 15.5796 22.4721 16.8408C22.4206 18.0129 22.2236 18.6458 22.0595 19.0678C21.8439 19.6257 21.5813 20.0289 21.1641 20.4462C20.7421 20.8681 20.3436 21.126 19.7857 21.3417C19.3637 21.5058 18.7261 21.7027 17.5587 21.7542C16.2928 21.8105 15.913 21.8246 12.7108 21.8246C9.50396 21.8246 9.1242 21.8105 7.86302 21.7542C6.69092 21.7027 6.05798 21.5058 5.63602 21.3417C5.0781 21.126 4.6749 20.8635 4.25763 20.4462C3.83567 20.0242 3.57781 19.6257 3.36214 19.0678C3.19805 18.6458 3.00113 18.0082 2.94956 16.8408C2.8933 15.5749 2.87923 15.1952 2.87923 11.993C2.87923 8.78609 2.8933 8.40633 2.94956 7.14515C3.00113 5.97304 3.19805 5.34011 3.36214 4.91815C3.57781 4.36023 3.84036 3.95702 4.25763 3.53975C4.67958 3.1178 5.0781 2.85993 5.63602 2.64427C6.05798 2.48017 6.6956 2.28326 7.86302 2.23169C9.1242 2.17542 9.50396 2.16136 12.7108 2.16136ZM12.7108 0C9.45239 0 9.0445 0.0140652 7.76456 0.0703262C6.48931 0.126587 5.61258 0.332877 4.85306 0.628248C4.06071 0.937683 3.39027 1.34558 2.72452 2.01602C2.05407 2.68177 1.64618 3.35222 1.33674 4.13987C1.04137 4.90408 0.835083 5.77613 0.778822 7.05138C0.722561 8.336 0.708496 8.7439 0.708496 12.0023C0.708496 15.2608 0.722561 15.6687 0.778822 16.9486C0.835083 18.2239 1.04137 19.1006 1.33674 19.8601C1.64618 20.6525 2.05407 21.3229 2.72452 21.9887C3.39027 22.6544 4.06071 23.067 4.84837 23.3718C5.61258 23.6671 6.48462 23.8734 7.75987 23.9297C9.03981 23.9859 9.4477 24 12.7062 24C15.9646 24 16.3725 23.9859 17.6524 23.9297C18.9277 23.8734 19.8044 23.6671 20.5639 23.3718C21.3516 23.067 22.022 22.6544 22.6878 21.9887C23.3535 21.3229 23.7661 20.6525 24.0709 19.8648C24.3662 19.1006 24.5725 18.2286 24.6288 16.9533C24.6851 15.6734 24.6991 15.2655 24.6991 12.007C24.6991 8.74858 24.6851 8.34069 24.6288 7.06075C24.5725 5.78551 24.3662 4.90877 24.0709 4.14925C23.7755 3.35222 23.3676 2.68177 22.6972 2.01602C22.0314 1.35026 21.361 0.937683 20.5733 0.632936C19.8091 0.337566 18.9371 0.131276 17.6618 0.0750147C16.3772 0.0140653 15.9693 0 12.7108 0Z" fill="#D9DBE1"/>
<path d="M12.7107 5.83691C9.30689 5.83691 6.54541 8.59839 6.54541 12.0022C6.54541 15.406 9.30689 18.1674 12.7107 18.1674C16.1145 18.1674 18.8759 15.406 18.8759 12.0022C18.8759 8.59839 16.1145 5.83691 12.7107 5.83691ZM12.7107 16.0014C10.5024 16.0014 8.71146 14.2104 8.71146 12.0022C8.71146 9.79394 10.5024 8.00296 12.7107 8.00296C14.9189 8.00296 16.7099 9.79394 16.7099 12.0022C16.7099 14.2104 14.9189 16.0014 12.7107 16.0014Z" fill="#D9DBE1"/>
<path d="M20.5594 5.59364C20.5594 6.39067 19.9124 7.03299 19.12 7.03299C18.323 7.03299 17.6807 6.38599 17.6807 5.59364C17.6807 4.79661 18.3277 4.1543 19.12 4.1543C19.9124 4.1543 20.5594 4.8013 20.5594 5.59364Z" fill="#D9DBE1"/>
</svg>
