<svg width="23" height="23" viewBox="0 0 23 23" fill="none" xmlns="http://www.w3.org/2000/svg">
<path d="M21.039 23L13.1242 15.0839C9.60335 17.587 4.7517 16.9748 1.96311 13.6753C-0.82549 10.3759 -0.620731 5.49007 2.43415 2.43554C5.48823 -0.620332 10.3745 -0.825976 13.6746 1.96247C16.9746 4.75092 17.5873 9.60304 15.0839 13.1242L22.9986 21.0404L21.0404 22.9986L21.039 23ZM8.30892 2.77066C5.68273 2.77007 3.417 4.61354 2.88352 7.18498C2.35003 9.75642 3.6954 12.3491 6.10509 13.3932C8.51478 14.4374 11.3265 13.6461 12.8379 11.4984C14.3493 9.35075 14.145 6.43697 12.3487 4.5212L13.1866 5.35215L12.2421 4.41041L12.2254 4.39379C11.1892 3.3512 9.77885 2.7667 8.30892 2.77066Z" fill="#10141F"/>
</svg>
