<svg width="30" height="24" viewBox="0 0 30 24" fill="none" xmlns="http://www.w3.org/2000/svg">
<path d="M9.4633 24C20.6067 24 26.7034 14.7655 26.7034 6.75987C26.7034 6.50026 26.6977 6.23488 26.6861 5.97528C27.8721 5.11759 28.8956 4.05522 29.7085 2.83809C28.604 3.32952 27.4312 3.65047 26.2304 3.78997C27.4948 3.03206 28.4415 1.84141 28.8951 0.438752C27.7056 1.1437 26.4047 1.64098 25.0483 1.90927C24.1344 0.938173 22.926 0.295188 21.61 0.0797305C20.294 -0.135727 18.9436 0.0883448 17.7677 0.717301C16.5918 1.34626 15.6559 2.34507 15.1046 3.55931C14.5533 4.77355 14.4173 6.13559 14.7177 7.43484C12.3091 7.31397 9.95286 6.68829 7.80161 5.59835C5.65036 4.50842 3.75217 2.97856 2.2301 1.10796C1.45651 2.44173 1.21979 4.02001 1.56805 5.52204C1.91632 7.02407 2.82343 8.33714 4.10504 9.19439C3.14288 9.16384 2.20181 8.90479 1.35956 8.43865V8.51365C1.3587 9.91334 1.84259 11.2701 2.72897 12.3534C3.61535 13.4367 4.84952 14.1795 6.22169 14.4557C5.3304 14.6996 4.39496 14.7351 3.48775 14.5596C3.87495 15.7633 4.6283 16.8161 5.64266 17.5711C6.65702 18.3261 7.88178 18.7456 9.146 18.771C6.99972 20.4569 4.34843 21.3713 1.61917 21.367C1.13515 21.3663 0.651616 21.3366 0.171143 21.2782C2.94379 23.057 6.16911 24.0017 9.4633 24Z" fill="#D9DBE1"/>
</svg>
